<svg width="224" height="76" viewBox="0 0 224 76" fill="none" xmlns="http://www.w3.org/2000/svg">
<mask id="mask0_205_2" style="mask-type:luminance" maskUnits="userSpaceOnUse" x="0" y="0" width="88" height="76">
<path d="M0 0H87.4037V76H0V0Z" fill="white"/>
</mask>
<g mask="url(#mask0_205_2)">
<path d="M53.3809 5.716C46.0398 14.7677 45.0976 26.1071 50.8591 36.0577C56.5611 45.9061 67.7655 52.0253 80.1046 52.0253C80.6685 52.0253 81.2464 52.0098 81.8173 51.985L83.1728 51.9261V38.7732C83.1728 23.125 71.8283 9.64976 54.9395 5.24482L53.9693 4.99063L53.3809 5.716ZM43.6686 3.80647C21.9219 3.80647 4.23447 19.4919 4.23447 38.7732V72.1063H22.3562L22.16 70.6897C21.0147 62.2766 23.5015 53.9038 29.1649 47.1119L29.3856 46.8484C30.0511 46.0673 30.8251 45.2365 31.5536 44.5266L31.6307 44.4522C31.7638 44.322 31.9914 44.1081 32.114 43.9934L32.163 43.9624L32.2961 43.8199C32.4783 43.6308 33.536 42.7287 33.9248 42.4094L33.9598 42.3939L34.1244 42.2482C36.0262 40.565 40.1381 37.9766 44.6738 36.2809L45.5424 35.9554V35.1185C45.5424 34.8643 45.4759 34.7031 45.3358 34.3838C43.6441 30.5058 41.3079 22.5763 44.6318 12.9976L44.6598 12.9108C45.5564 10.3999 46.7543 8.02232 48.2253 5.8462L49.3986 4.11336L47.1255 3.93666C45.9767 3.84987 44.8139 3.80647 43.6686 3.80647ZM42.3552 41.5042C41.1678 42.1056 39.322 43.2123 37.4868 44.6289L36.2819 45.5589L37.4622 46.5137C45.1992 52.7692 49.6368 61.6349 49.6368 70.8416V72.1063H64.4592V52.701L63.6641 52.3538C62.1405 51.6874 60.6275 50.9 59.286 50.0754L59.2125 50.0103L59.1074 49.9638L58.8272 49.7902H58.8062C58.2073 49.4152 56.9079 48.541 56.6627 48.3457L56.6207 48.3085L56.5611 48.2682C52.4598 45.3295 50.2112 42.366 49.3636 41.25C49.185 41.0114 49.0764 40.8719 48.9783 40.7634C48.8697 40.6084 48.7226 40.4007 48.5195 40.1217L48.4915 40.0814L47.861 39.1731L46.7367 39.5823C45.2937 40.1124 44.0153 40.658 42.8455 41.2531H42.6389L42.3552 41.5042ZM83.1728 75.9998V55.7017L81.6982 55.7451C81.1974 55.7606 80.7 55.7668 80.2132 55.7668C76.7913 55.7668 73.6111 55.3979 70.4939 54.6416L68.6901 54.2014V75.8541H45.024C45.3218 73.275 45.6125 70.3642 45.1011 66.9698C43.9943 60.0168 40.3518 53.9007 34.5692 49.2788L33.3924 48.3395L32.4607 49.4679C26.7447 56.4023 24.7659 65.1781 27.0319 73.5416L27.6589 75.8541H0V38.7732C0 28.2739 4.65476 18.4566 13.1132 11.1284C17.1515 7.62863 21.8308 4.87903 27.0284 2.9571C32.3382 0.994869 37.9246 -0.0032959 43.6266 -0.0032959C48.5335 -0.0032959 53.4229 0.749978 58.1512 2.22863C66.7112 4.89143 74.0174 9.75206 79.285 16.2897C84.5983 22.8801 87.4037 30.6546 87.4037 38.7732V75.9998H83.1728Z" fill="#004AAD"/>
</g>
<path d="M65.1806 33.2834C63.1422 33.2834 61.4855 31.8141 61.4855 30.0099C61.4855 28.2027 63.1422 26.7365 65.1806 26.7365C67.2191 26.7365 68.8757 28.2027 68.8757 30.0099C68.8757 31.8141 67.2191 33.2834 65.1806 33.2834Z" fill="#004AAD"/>
<path d="M110.77 20.397C114.027 20.397 116.882 20.9519 119.33 22.0585C121.785 23.159 123.68 24.743 125.018 26.8075C126.352 28.8752 127.021 31.2838 127.021 34.0365C127.021 36.7892 126.352 39.1792 125.018 41.2034C123.68 43.2308 121.785 44.7838 119.33 45.8657C116.882 46.9413 114.027 47.4776 110.77 47.4776H100.781V20.397H110.77ZM110.77 43.8569C114.356 43.8569 117.102 43.0014 119.008 41.2902C120.913 39.5729 121.866 37.155 121.866 34.0365C121.866 30.887 120.913 28.4319 119.008 26.6711C117.102 24.9042 114.356 24.0176 110.77 24.0176H105.796V43.8569H110.77Z" fill="#004AAD"/>
<path d="M153.961 26.0016V47.4776H148.945V44.9481C148.15 45.8347 147.113 46.5291 145.835 47.0312C144.553 47.5334 143.194 47.7876 141.758 47.7876C139.853 47.7876 138.144 47.4373 136.631 46.7337C135.118 46.0331 133.927 44.9946 133.058 43.6214C132.196 42.2419 131.769 40.5804 131.769 38.6367V26.0016H136.743V37.9672C136.743 39.8953 137.282 41.3708 138.368 42.3938C139.461 43.4199 140.946 43.9314 142.823 43.9314C144.7 43.9314 146.189 43.4199 147.292 42.3938C148.392 41.3708 148.945 39.8953 148.945 37.9672V26.0016H153.961Z" fill="#004AAD"/>
<path d="M172.795 25.6543C174.707 25.6543 176.424 26.0077 177.937 26.7083C179.45 27.4119 180.63 28.4535 181.481 29.8329C182.329 31.2062 182.756 32.8677 182.756 34.8176V47.4775H177.783V35.4747C177.783 33.5497 177.236 32.0742 176.143 31.0481C175.058 30.0251 173.58 29.5106 171.702 29.5106C169.825 29.5106 168.333 30.0251 167.233 31.0481C166.13 32.0742 165.58 33.5497 165.58 35.4747V47.4775H160.564V26.0015H165.58V28.4566C166.4 27.5731 167.447 26.8881 168.718 26.3983C169.997 25.9023 171.356 25.6543 172.795 25.6543Z" fill="#004AAD"/>
<path d="M191.685 23.1622C190.778 23.1622 190.018 22.8894 189.402 22.3439C188.785 21.7983 188.477 21.1225 188.477 20.3103C188.477 19.5106 188.785 18.8348 189.402 18.2892C190.018 17.7436 190.778 17.4708 191.685 17.4708C192.561 17.4708 193.31 17.7436 193.927 18.2892C194.543 18.8348 194.852 19.5106 194.852 20.3103C194.852 21.1225 194.543 21.7983 193.927 22.3439C193.31 22.8894 192.561 23.1622 191.685 23.1622ZM194.151 26.0017V47.4778H189.136V26.0017H194.151Z" fill="#004AAD"/>
<path d="M199.077 36.6403C199.077 34.4828 199.581 32.5733 200.59 30.9117C201.605 29.2502 202.989 27.9606 204.737 27.043C206.481 26.1193 208.411 25.6543 210.523 25.6543C212.435 25.6543 214.102 25.986 215.524 26.6463C216.953 27.3096 218.091 28.1342 218.942 29.1262V26.0015H224V47.4775H218.942V44.2784C218.091 45.2952 216.929 46.1446 215.454 46.8203C213.986 47.4899 212.316 47.8247 210.438 47.8247C208.355 47.8247 206.446 47.3535 204.708 46.4112C202.978 45.4626 201.605 44.1358 200.59 42.4309C199.581 40.7291 199.077 38.7978 199.077 36.6403ZM218.942 36.7271C218.942 35.2392 218.596 33.9496 217.906 32.8584C217.212 31.7673 216.309 30.9365 215.188 30.3661C214.074 29.7957 212.876 29.5106 211.587 29.5106C210.298 29.5106 209.094 29.7926 207.973 30.3537C206.859 30.9086 205.959 31.727 205.269 32.8088C204.575 33.8845 204.232 35.1617 204.232 36.6403C204.232 38.1221 204.575 39.424 205.269 40.5462C205.959 41.6621 206.869 42.5146 208.001 43.1005C209.129 43.6802 210.326 43.9684 211.587 43.9684C212.876 43.9684 214.074 43.6833 215.188 43.1129C216.309 42.5425 217.212 41.7086 217.906 40.6082C218.596 39.5015 218.942 38.2088 218.942 36.7271Z" fill="#004AAD"/>
<path d="M111.13 65.7157C111.922 65.8738 112.535 66.1807 112.965 66.6333C113.403 67.089 113.624 67.6748 113.624 68.394C113.624 69.3209 113.235 70.0307 112.461 70.5267C111.694 71.0227 110.559 71.2707 109.057 71.2707H103.453V60.4955H108.707C110.058 60.4955 111.109 60.7404 111.859 61.2271C112.615 61.7075 112.994 62.3895 112.994 63.273C112.994 63.8682 112.825 64.3734 112.489 64.7857C112.16 65.2011 111.708 65.5111 111.13 65.7157ZM104.742 61.4379V65.3437H108.622C109.61 65.3437 110.374 65.1794 110.906 64.8477C111.438 64.5191 111.705 64.0356 111.705 63.397C111.705 62.7615 111.438 62.2779 110.906 61.9462C110.374 61.6083 109.61 61.4379 108.622 61.4379H104.742ZM109.043 70.3283C110.125 70.3283 110.948 70.1671 111.508 69.8448C112.069 69.5162 112.349 68.9985 112.349 68.2948C112.349 66.9557 111.246 66.2861 109.043 66.2861H104.742V70.3283H109.043Z" fill="#004AAD"/>
<path d="M124.264 67.5631H116.614C116.688 68.4063 117.052 69.0883 117.707 69.6091C118.369 70.1236 119.206 70.3778 120.215 70.3778C120.782 70.3778 121.307 70.291 121.784 70.1174C122.26 69.9377 122.67 69.668 123.017 69.3115L123.717 70.0182C123.304 70.4584 122.796 70.787 122.19 71.0102C121.581 71.2334 120.915 71.345 120.187 71.345C119.241 71.345 118.407 71.1714 117.679 70.8242C116.957 70.4708 116.394 69.978 115.984 69.3487C115.581 68.7225 115.381 68.0157 115.381 67.2283C115.381 66.4348 115.57 65.728 115.956 65.108C116.348 64.4818 116.88 63.9921 117.553 63.6449C118.232 63.2915 118.999 63.1117 119.85 63.1117C120.698 63.1117 121.462 63.2915 122.134 63.6449C122.807 63.9921 123.328 64.4756 123.703 65.0956C124.085 65.7156 124.278 66.4286 124.278 67.2283L124.264 67.5631ZM119.85 64.0541C118.971 64.0541 118.232 64.3021 117.637 64.798C117.038 65.294 116.698 65.945 116.614 66.7448H123.101C123.017 65.945 122.673 65.294 122.078 64.798C121.49 64.3021 120.747 64.0541 119.85 64.0541Z" fill="#004AAD"/>
<path d="M126.804 59.8506H128.036V71.2706H126.804V59.8506Z" fill="#004AAD"/>
<path d="M134.674 63.1117C135.868 63.1117 136.782 63.3783 137.42 63.9053C138.064 64.4353 138.387 65.2165 138.387 66.2488V71.2706H137.196V70.0058C136.916 70.4274 136.502 70.7591 135.963 70.9978C135.43 71.2303 134.793 71.345 134.058 71.345C133.028 71.345 132.212 71.1311 131.606 70.7002C131.007 70.2724 130.709 69.7021 130.709 68.9891C130.709 68.304 130.989 67.7491 131.55 67.3275C132.117 66.906 133.014 66.6952 134.24 66.6952H137.14V66.2116C137.14 65.511 136.919 64.9778 136.481 64.612C136.04 64.2494 135.402 64.0665 134.562 64.0665C133.973 64.0665 133.413 64.1533 132.881 64.3269C132.348 64.4942 131.889 64.7236 131.508 65.0212L130.961 64.2029C131.417 63.8557 131.97 63.5891 132.615 63.3969C133.266 63.2078 133.952 63.1117 134.674 63.1117ZM134.24 70.4894C134.94 70.4894 135.536 70.3499 136.033 70.0678C136.527 69.7796 136.895 69.3704 137.14 68.8403V67.5135H134.282C132.713 67.5135 131.928 67.9971 131.928 68.9643C131.928 69.4355 132.128 69.8075 132.53 70.0802C132.94 70.353 133.511 70.4894 134.24 70.4894Z" fill="#004AAD"/>
<path d="M146.386 63.1117C147.535 63.1117 148.449 63.4093 149.132 64.0045C149.811 64.5934 150.155 65.449 150.155 66.5712V71.2706H148.908V66.6828C148.908 65.8396 148.67 65.201 148.193 64.7608C147.724 64.3238 147.048 64.1037 146.162 64.1037C145.181 64.1037 144.4 64.364 143.822 64.8848C143.251 65.3994 142.968 66.1093 142.968 67.0176V71.2706H141.735V63.1737H142.912V64.674C143.248 64.1781 143.714 63.7937 144.313 63.5209C144.908 63.2481 145.601 63.1117 146.386 63.1117Z" fill="#004AAD"/>
<path d="M152.143 74.3333C151.761 74.3333 151.4 74.2868 151.064 74.1969C150.721 74.1132 150.434 73.9862 150.209 73.8126L150.644 72.9818C151.008 73.2546 151.484 73.391 152.073 73.391C152.556 73.391 152.931 73.2608 153.194 73.0066C153.453 72.7493 153.586 72.368 153.586 71.8658V63.1737H154.819V71.8658C154.819 72.6253 154.584 73.2236 154.118 73.6638C153.659 74.1102 153.001 74.3333 152.143 74.3333ZM154.216 61.4006C153.954 61.4006 153.733 61.3231 153.558 61.165C153.39 61.01 153.306 60.824 153.306 60.607C153.306 60.4024 153.39 60.2226 153.558 60.0738C153.733 59.9189 153.954 59.8383 154.216 59.8383C154.468 59.8383 154.679 59.9127 154.847 60.0614C155.022 60.2102 155.113 60.39 155.113 60.5946C155.113 60.8178 155.022 61.01 154.847 61.165C154.679 61.3231 154.468 61.4006 154.216 61.4006Z" fill="#004AAD"/>
<path d="M161.458 63.1117C162.653 63.1117 163.567 63.3783 164.204 63.9053C164.849 64.4353 165.171 65.2165 165.171 66.2488V71.2706H163.98V70.0058C163.7 70.4274 163.287 70.7591 162.747 70.9978C162.215 71.2303 161.578 71.345 160.842 71.345C159.812 71.345 158.996 71.1311 158.39 70.7002C157.791 70.2724 157.494 69.7021 157.494 68.9891C157.494 68.304 157.774 67.7491 158.334 67.3275C158.902 66.906 159.798 66.6952 161.024 66.6952H163.924V66.2116C163.924 65.511 163.704 64.9778 163.266 64.612C162.824 64.2494 162.187 64.0665 161.346 64.0665C160.758 64.0665 160.198 64.1533 159.665 64.3269C159.133 64.4942 158.674 64.7236 158.292 65.0212L157.746 64.2029C158.201 63.8557 158.755 63.5891 159.399 63.3969C160.05 63.2078 160.737 63.1117 161.458 63.1117ZM161.024 70.4894C161.725 70.4894 162.32 70.3499 162.817 70.0678C163.311 69.7796 163.679 69.3704 163.924 68.8403V67.5135H161.066C159.497 67.5135 158.713 67.9971 158.713 68.9643C158.713 69.4355 158.912 69.8075 159.315 70.0802C159.725 70.353 160.296 70.4894 161.024 70.4894Z" fill="#004AAD"/>
</svg>
