<svg width="256" height="144" viewBox="0 0 256 144" fill="none" xmlns="http://www.w3.org/2000/svg">
<g id="Logo / Svg">
<g id="Group">
<g id="Group_2">
<g id="Group_3">
<path id="Vector" d="M46.4047 0C60.9281 0 73.406 2.60075 83.8382 7.79873C94.2669 13.0002 102.309 20.9257 107.963 31.575C113.625 42.2279 116.455 55.5976 116.455 71.6807C116.455 87.7674 113.625 101.137 107.963 111.786C102.309 122.439 94.2669 130.365 83.8382 135.563C73.406 140.764 60.9281 143.361 46.4047 143.361H0V0H46.4047ZM44.7428 129.045C56.7137 129.045 66.6178 127.183 74.4587 123.456C82.3066 119.733 88.2604 113.655 92.3164 105.227C96.3724 96.7908 98.4004 85.6101 98.4004 71.6807C98.4004 57.6881 96.3724 46.4932 92.3164 38.0927C88.2604 29.6957 82.3066 23.632 74.4587 19.9051C66.6178 16.1817 56.7137 14.3164 44.7428 14.3164H16.8859V129.045H44.7428Z" fill="white"/>
</g>
</g>
</g>
<g id="Clip path group">
<mask id="mask0_70_486" style="mask-type:luminance" maskUnits="userSpaceOnUse" x="16" y="29" width="79" height="78">
<g id="fa0806f38f">
<path id="Vector_2" d="M16.5283 29.9209H94.6381V106.032H16.5283V29.9209Z" fill="white"/>
</g>
</mask>
<g mask="url(#mask0_70_486)">
<g id="Group_4">
<path id="Vector_3" d="M64.2322 35.6468C57.6728 44.7089 56.8314 56.0692 61.9788 66.0323C67.0735 75.8933 77.0867 82.0204 88.114 82.0204C88.621 82.0204 89.135 82.0098 89.6456 81.9852L90.8567 81.9253V68.7527C90.8567 53.0813 80.7167 39.5848 65.6264 35.1752L64.7603 34.9183L64.2322 35.6468ZM55.5533 33.7323C36.1183 33.7323 20.3097 49.4424 20.3097 68.7527V102.133H36.5056L36.333 100.715C35.305 92.2896 37.5301 83.9067 42.5896 77.1039L42.7867 76.8364C43.3818 76.0552 44.0754 75.2246 44.7267 74.5137L44.7936 74.4398C44.9133 74.3096 45.114 74.0949 45.2267 73.9788L45.2724 73.9471L45.3886 73.8028C45.5506 73.6163 46.4977 72.7154 46.8463 72.3951L46.8744 72.3775L47.0223 72.2332C48.7229 70.544 52.3986 67.9538 56.4511 66.254L57.2292 65.9302V65.0891C57.2292 64.8357 57.1658 64.6773 57.0426 64.3571C55.5286 60.4718 53.4443 52.5323 56.4124 42.9387L56.4405 42.8507C57.2398 40.338 58.3101 37.9554 59.6269 35.777L60.6726 34.042L58.6411 33.866C57.6165 33.778 56.5779 33.7323 55.5533 33.7323ZM54.3773 71.4836C53.3176 72.0889 51.6663 73.1975 50.0291 74.6158L48.9517 75.5484L50.008 76.5056C56.9194 82.7664 60.8874 91.6456 60.8874 100.866V102.133H74.1328V82.6996L73.4215 82.3512C72.059 81.686 70.7105 80.8977 69.5099 80.0707L69.4465 80.0073L69.3479 79.9581L69.098 79.7856H69.0804C68.5452 79.409 67.3868 78.5363 67.165 78.3392L67.1263 78.3005L67.077 78.2582C63.4083 75.3161 61.3979 72.3494 60.6444 71.2338C60.4825 70.9944 60.3874 70.8537 60.2994 70.7446C60.2008 70.5897 60.0705 70.3821 59.8874 70.1005L59.8628 70.0618L59.2995 69.1503L58.296 69.5621C57.0039 70.0935 55.8631 70.6425 54.8174 71.2338H54.6308L54.3773 71.4836ZM90.8567 106.032V85.705L89.5399 85.7473C89.0928 85.7613 88.6457 85.7719 88.2091 85.7719C85.153 85.7719 82.3117 85.4024 79.5267 84.6422L77.9141 84.2023V105.888H56.7609C57.0285 103.301 57.2891 100.387 56.8314 96.9914C55.842 90.0267 52.5887 83.8996 47.4202 79.2718L46.3709 78.3321L45.5365 79.4618C40.4278 86.4054 38.6603 95.193 40.6848 103.572L41.2446 105.888H16.5283V68.7527C16.5283 58.237 20.6864 48.4077 28.2457 41.0665C31.8545 37.5613 36.0373 34.8092 40.6813 32.8841C45.4274 30.9169 50.4199 29.9209 55.5146 29.9209C59.9015 29.9209 64.2674 30.6705 68.4959 32.1521C76.1432 34.8197 82.6743 39.6904 87.3852 46.2363C92.1313 52.8349 94.6381 60.6231 94.6381 68.7527V106.032H90.8567Z" fill="white"/>
</g>
</g>
</g>
<path id="Vector_4" d="M74.7771 63.2517C72.9568 63.2517 71.478 61.7807 71.478 59.9753C71.478 58.1664 72.9568 56.6953 74.7771 56.6953C76.6008 56.6953 78.0796 58.1664 78.0796 59.9753C78.0796 61.7807 76.6008 63.2517 74.7771 63.2517Z" fill="white"/>
<g id="Group_5">
<g id="Group_6">
<g id="Group_7">
<path id="Vector_5" d="M155.031 82.7588V118.163H149.144V112.926C148.025 114.739 146.461 116.15 144.455 117.163C142.455 118.177 140.247 118.684 137.835 118.684C135.075 118.684 132.596 118.113 130.399 116.966C128.202 115.822 126.463 114.109 125.188 111.828C123.921 109.548 123.287 106.771 123.287 103.494V82.7588H129.118V102.72C129.118 106.211 129.998 108.896 131.765 110.772C133.529 112.641 135.941 113.574 139.004 113.574C142.148 113.574 144.624 112.609 146.426 110.674C148.236 108.731 149.144 105.909 149.144 102.199V82.7588H155.031Z" fill="white"/>
</g>
</g>
</g>
<g id="Group_8">
<g id="Group_9">
<g id="Group_10">
<path id="Vector_6" d="M182.249 82.1123C186.558 82.1123 190.044 83.418 192.713 86.0257C195.389 88.6265 196.727 92.3816 196.727 97.2874V118.164H190.91V98.1321C190.91 94.6058 190.026 91.9029 188.262 90.0237C186.495 88.1479 184.083 87.2082 181.024 87.2082C177.915 87.2082 175.447 88.1795 173.616 90.1222C171.785 92.0578 170.87 94.8767 170.87 98.5825V118.164H164.983V82.7599H170.87V87.7995C172.031 85.9906 173.616 84.5899 175.616 83.6045C177.622 82.612 179.834 82.1123 182.249 82.1123Z" fill="white"/>
</g>
</g>
</g>
<g id="Group_11">
<g id="Group_12">
<g id="Group_13">
<path id="Vector_7" d="M209.396 77.0021C208.277 77.0021 207.329 76.6185 206.551 75.8477C205.78 75.07 205.396 74.1233 205.396 73.0042C205.396 71.878 205.78 70.9313 206.551 70.1606C207.329 69.3828 208.277 68.9922 209.396 68.9922C210.474 68.9922 211.389 69.3828 212.142 70.1606C212.903 70.9313 213.283 71.878 213.283 73.0042C213.283 74.1233 212.903 75.07 212.142 75.8477C211.389 76.6185 210.474 77.0021 209.396 77.0021ZM212.241 82.7596V118.164H206.354V82.7596H212.241Z" fill="white"/>
</g>
</g>
</g>
<g id="Group_14">
<g id="Group_15">
<g id="Group_16">
<path id="Vector_8" d="M220.059 100.327C220.059 96.7167 220.792 93.5423 222.256 90.8113C223.721 88.0733 225.735 85.9477 228.298 84.4344C230.868 82.9246 233.727 82.168 236.875 82.168C239.973 82.168 242.663 82.8402 244.945 84.181C247.233 85.5148 248.937 87.1935 250.057 89.2206V82.7592H256V118.163H250.057V111.575C248.891 113.641 247.156 115.355 244.846 116.713C242.543 118.065 239.864 118.74 236.804 118.74C233.657 118.74 230.812 117.966 228.27 116.418C225.724 114.869 223.721 112.698 222.256 109.9C220.792 107.095 220.059 103.903 220.059 100.327ZM250.057 100.398C250.057 97.7232 249.515 95.3969 248.437 93.4156C247.367 91.4378 245.909 89.9209 244.071 88.8687C242.241 87.8094 240.227 87.278 238.03 87.278C235.833 87.278 233.826 87.7953 232.016 88.8264C230.213 89.8611 228.77 91.3709 227.693 93.3593C226.612 95.3406 226.073 97.6634 226.073 100.327C226.073 103.041 226.612 105.402 227.693 107.408C228.77 109.407 230.213 110.938 232.016 111.997C233.826 113.05 235.833 113.574 238.03 113.574C240.227 113.574 242.241 113.05 244.071 111.997C245.909 110.938 247.367 109.407 248.437 107.408C249.515 105.402 250.057 103.065 250.057 100.398Z" fill="white"/>
</g>
</g>
</g>
<g id="Group_17">
<g id="Group_18">
<g id="Group_19">
<path id="Vector_9" d="M128.611 133.949C129.435 134.128 130.068 134.483 130.512 135.018C130.963 135.546 131.188 136.229 131.188 137.074C131.188 138.143 130.787 138.971 129.991 139.551C129.202 140.135 128.026 140.424 126.47 140.424H120.682V127.867H126.104C127.512 127.867 128.6 128.149 129.371 128.712C130.139 129.268 130.526 130.06 130.526 131.091C130.526 131.788 130.35 132.379 130.005 132.865C129.667 133.343 129.202 133.706 128.611 133.949ZM122.02 128.951V133.512H126.019C127.033 133.512 127.815 133.322 128.371 132.935C128.924 132.541 129.202 131.974 129.202 131.232C129.202 130.493 128.924 129.929 128.371 129.542C127.815 129.148 127.033 128.951 126.019 128.951H122.02ZM126.456 139.326C127.572 139.326 128.417 139.139 128.991 138.763C129.572 138.379 129.864 137.777 129.864 136.961C129.864 135.395 128.727 134.61 126.456 134.61H122.02V139.326H126.456Z" fill="white"/>
</g>
</g>
</g>
<g id="Group_20">
<g id="Group_21">
<g id="Group_22">
<path id="Vector_10" d="M142.181 136.104H134.28C134.354 137.082 134.731 137.874 135.407 138.483C136.09 139.084 136.956 139.384 137.998 139.384C138.59 139.384 139.128 139.282 139.618 139.074C140.104 138.859 140.526 138.55 140.885 138.145L141.604 138.975C141.188 139.475 140.667 139.855 140.04 140.116C139.41 140.38 138.72 140.51 137.97 140.51C136.991 140.51 136.129 140.306 135.379 139.89C134.636 139.479 134.055 138.912 133.632 138.187C133.217 137.455 133.013 136.632 133.013 135.709C133.013 134.791 133.21 133.964 133.604 133.232C134.006 132.5 134.555 131.933 135.252 131.529C135.956 131.117 136.745 130.909 137.618 130.909C138.491 130.909 139.273 131.117 139.97 131.529C140.663 131.933 141.209 132.496 141.604 133.218C141.998 133.943 142.195 134.773 142.195 135.709L142.181 136.104ZM137.618 132.007C136.706 132.007 135.942 132.299 135.322 132.88C134.71 133.464 134.365 134.217 134.28 135.146H140.984C140.899 134.217 140.547 133.464 139.928 132.88C139.308 132.299 138.537 132.007 137.618 132.007Z" fill="white"/>
</g>
</g>
</g>
<g id="Group_23">
<g id="Group_24">
<g id="Group_25">
<path id="Vector_11" d="M144.804 127.108H146.086V140.425H144.804V127.108Z" fill="white"/>
</g>
</g>
</g>
<g id="Group_26">
<g id="Group_27">
<g id="Group_28">
<path id="Vector_12" d="M152.945 130.909C154.174 130.909 155.118 131.219 155.776 131.838C156.431 132.458 156.762 133.369 156.762 134.569V140.425H155.551V138.947C155.258 139.447 154.836 139.831 154.283 140.102C153.727 140.376 153.065 140.51 152.297 140.51C151.245 140.51 150.403 140.263 149.776 139.764C149.157 139.257 148.847 138.592 148.847 137.765C148.847 136.969 149.136 136.325 149.72 135.836C150.301 135.34 151.227 135.09 152.495 135.09H155.494V134.527C155.494 133.711 155.262 133.091 154.804 132.669C154.354 132.239 153.692 132.021 152.818 132.021C152.216 132.021 151.639 132.12 151.086 132.317C150.54 132.514 150.072 132.788 149.678 133.133L149.1 132.19C149.579 131.778 150.15 131.465 150.819 131.247C151.495 131.022 152.202 130.909 152.945 130.909ZM152.495 139.51C153.206 139.51 153.822 139.348 154.339 139.018C154.853 138.69 155.241 138.215 155.494 137.596V136.047H152.523C150.907 136.047 150.1 136.61 150.1 137.737C150.1 138.282 150.312 138.715 150.734 139.032C151.157 139.352 151.741 139.51 152.495 139.51Z" fill="white"/>
</g>
</g>
</g>
<g id="Group_29">
<g id="Group_30">
<g id="Group_31">
<path id="Vector_13" d="M165.049 130.909C166.232 130.909 167.168 131.258 167.865 131.951C168.57 132.637 168.922 133.637 168.922 134.949V140.425H167.654V135.076C167.654 134.101 167.404 133.355 166.908 132.838C166.418 132.324 165.718 132.064 164.809 132.064C163.795 132.064 162.993 132.37 162.401 132.979C161.81 133.58 161.514 134.411 161.514 135.47V140.425H160.232V130.98H161.457V132.725C161.802 132.155 162.281 131.708 162.894 131.388C163.514 131.071 164.232 130.909 165.049 130.909Z" fill="white"/>
</g>
</g>
</g>
<g id="Group_32">
<g id="Group_33">
<g id="Group_34">
<path id="Vector_14" d="M170.997 144C170.603 144 170.229 143.948 169.87 143.846C169.515 143.74 169.223 143.585 168.997 143.381L169.448 142.424C169.825 142.74 170.318 142.902 170.927 142.902C171.423 142.902 171.807 142.751 172.081 142.452C172.353 142.149 172.49 141.709 172.49 141.129V130.979H173.757V141.129C173.757 142.008 173.518 142.709 173.039 143.226C172.56 143.74 171.877 144 170.997 144ZM173.138 128.91C172.863 128.91 172.638 128.822 172.462 128.642C172.282 128.456 172.194 128.241 172.194 127.995C172.194 127.752 172.282 127.541 172.462 127.361C172.638 127.185 172.863 127.094 173.138 127.094C173.398 127.094 173.62 127.185 173.8 127.361C173.976 127.53 174.067 127.734 174.067 127.967C174.067 128.23 173.976 128.456 173.8 128.642C173.62 128.822 173.398 128.91 173.138 128.91Z" fill="white"/>
</g>
</g>
</g>
<g id="Group_35">
<g id="Group_36">
<g id="Group_37">
<path id="Vector_15" d="M180.622 130.909C181.851 130.909 182.794 131.219 183.453 131.838C184.108 132.458 184.439 133.369 184.439 134.569V140.425H183.227V138.947C182.935 139.447 182.513 139.831 181.96 140.102C181.404 140.376 180.742 140.51 179.974 140.51C178.921 140.51 178.08 140.263 177.453 139.764C176.834 139.257 176.524 138.592 176.524 137.765C176.524 136.969 176.812 136.325 177.397 135.836C177.978 135.34 178.904 135.09 180.171 135.09H183.171V134.527C183.171 133.711 182.939 133.091 182.481 132.669C182.03 132.239 181.368 132.021 180.495 132.021C179.893 132.021 179.316 132.12 178.763 132.317C178.217 132.514 177.749 132.788 177.355 133.133L176.777 132.19C177.256 131.778 177.826 131.465 178.495 131.247C179.171 131.022 179.879 130.909 180.622 130.909ZM180.171 139.51C180.882 139.51 181.499 139.348 182.016 139.018C182.53 138.69 182.918 138.215 183.171 137.596V136.047H180.199C178.583 136.047 177.777 136.61 177.777 137.737C177.777 138.282 177.988 138.715 178.411 139.032C178.833 139.352 179.418 139.51 180.171 139.51Z" fill="white"/>
</g>
</g>
</g>
</g>
</svg>
